Courier Prime Sans Bold Italic.ufo
<glyph name="dollar" format="1">
  <advance width="1228"/>
  <unicode hex="0024"/>
  <outline>
    <contour>
      <point x="699" y="1312"/>
      <point x="678" y="1294"/>
      <point x="670" y="1249" type="curve" smooth="yes"/>
      <point x="641" y="1086" type="line"/>
      <point x="396" y="1081"/>
      <point x="231" y="956"/>
      <point x="231" y="750" type="curve" smooth="yes"/>
      <point x="231" y="656"/>
      <point x="274" y="598"/>
      <point x="337" y="562" type="curve" smooth="yes"/>
      <point x="394" y="529"/>
      <point x="466" y="513"/>
      <point x="538" y="503" type="curve"/>
      <point x="509" y="336" type="line"/>
      <point x="434" y="345"/>
      <point x="355" y="364"/>
      <point x="273" y="395" type="curve" smooth="yes"/>
      <point x="235" y="410"/>
      <point x="191" y="396"/>
      <point x="165" y="316" type="curve" smooth="yes"/>
      <point x="140" y="239"/>
      <point x="159" y="205"/>
      <point x="199" y="190" type="curve" smooth="yes"/>
      <point x="284" y="159"/>
      <point x="378" y="137"/>
      <point x="472" y="126" type="curve"/>
      <point x="439" y="-62" type="line" smooth="yes"/>
      <point x="431" y="-107"/>
      <point x="445" y="-125"/>
      <point x="520" y="-125" type="curve" smooth="yes"/>
      <point x="595" y="-125"/>
      <point x="617" y="-107"/>
      <point x="625" y="-62" type="curve" smooth="yes"/>
      <point x="657" y="119" type="line"/>
      <point x="935" y="131"/>
      <point x="1079" y="270"/>
      <point x="1079" y="469" type="curve" smooth="yes"/>
      <point x="1079" y="563"/>
      <point x="1033" y="619"/>
      <point x="968" y="654" type="curve" smooth="yes"/>
      <point x="909" y="685"/>
      <point x="833" y="699"/>
      <point x="760" y="708" type="curve"/>
      <point x="788" y="865" type="line"/>
      <point x="856" y="855"/>
      <point x="927" y="837"/>
      <point x="1000" y="809" type="curve" smooth="yes"/>
      <point x="1039" y="794"/>
      <point x="1083" y="810"/>
      <point x="1109" y="888" type="curve" smooth="yes"/>
      <point x="1135" y="966"/>
      <point x="1115" y="999"/>
      <point x="1075" y="1014" type="curve" smooth="yes"/>
      <point x="996" y="1042"/>
      <point x="911" y="1062"/>
      <point x="825" y="1074" type="curve"/>
      <point x="856" y="1249" type="line" smooth="yes"/>
      <point x="864" y="1294"/>
      <point x="849" y="1312"/>
      <point x="774" y="1312" type="curve" smooth="yes"/>
    </contour>
    <contour>
      <point x="789" y="471"/>
      <point x="815" y="453"/>
      <point x="815" y="421" type="curve" smooth="yes"/>
      <point x="815" y="378"/>
      <point x="779" y="346"/>
      <point x="695" y="335" type="curve"/>
      <point x="721" y="483" type="line"/>
    </contour>
    <contour>
      <point x="578" y="726" type="line"/>
      <point x="518" y="735"/>
      <point x="491" y="752"/>
      <point x="491" y="783" type="curve" smooth="yes"/>
      <point x="491" y="830"/>
      <point x="529" y="861"/>
      <point x="603" y="870" type="curve"/>
    </contour>
  </outline>
</glyph>
<glyph name="two" format="1">
  <advance width="1228"/>
  <unicode hex="0032"/>
  <outline>
    <contour>
      <point x="575" y="1209"/>
      <point x="444" y="1175"/>
      <point x="326" y="1115" type="curve" smooth="yes"/>
      <point x="280" y="1092"/>
      <point x="267" y="1051"/>
      <point x="293" y="975" type="curve" smooth="yes"/>
      <point x="320" y="895"/>
      <point x="349" y="874"/>
      <point x="394" y="894" type="curve" smooth="yes"/>
      <point x="499" y="942"/>
      <point x="594" y="972"/>
      <point x="683" y="972" type="curve" smooth="yes"/>
      <point x="773" y="972"/>
      <point x="819" y="922"/>
      <point x="819" y="850" type="curve" smooth="yes"/>
      <point x="819" y="769"/>
      <point x="762" y="705"/>
      <point x="633" y="596" type="curve" smooth="yes"/>
      <point x="171" y="206" type="line" smooth="yes"/>
      <point x="150" y="189"/>
      <point x="137" y="157"/>
      <point x="131" y="103" type="curve" smooth="yes"/>
      <point x="122" y="18"/>
      <point x="135" y="0"/>
      <point x="180" y="0" type="curve" smooth="yes"/>
      <point x="936" y="0" type="line" smooth="yes"/>
      <point x="981" y="0"/>
      <point x="1002" y="22"/>
      <point x="1019" y="117" type="curve" smooth="yes"/>
      <point x="1036" y="212"/>
      <point x="1022" y="235"/>
      <point x="977" y="235" type="curve" smooth="yes"/>
      <point x="559" y="235" type="line"/>
      <point x="830" y="455" type="line" smooth="yes"/>
      <point x="995" y="589"/>
      <point x="1078" y="706"/>
      <point x="1078" y="875" type="curve" smooth="yes"/>
      <point x="1078" y="1075"/>
      <point x="948" y="1209"/>
      <point x="708" y="1209" type="curve" smooth="yes"/>
    </contour>
  </outline>
</glyph>
<glyph name="question" format="1">
  <advance width="1228"/>
  <unicode hex="003F"/>
  <outline>
    <contour>
      <point x="467" y="290"/>
      <point x="427" y="272"/>
      <point x="419" y="227" type="curve" smooth="yes"/>
      <point x="388" y="53" type="line" smooth="yes"/>
      <point x="380" y="8"/>
      <point x="426" y="-10"/>
      <point x="528" y="-10" type="curve" smooth="yes"/>
      <point x="630" y="-10"/>
      <point x="670" y="8"/>
      <point x="678" y="53" type="curve" smooth="yes"/>
      <point x="709" y="227" type="line" smooth="yes"/>
      <point x="717" y="272"/>
      <point x="671" y="290"/>
      <point x="569" y="290" type="curve" smooth="yes"/>
    </contour>
    <contour>
      <point x="629" y="1269"/>
      <point x="523" y="1243"/>
      <point x="437" y="1204" type="curve" smooth="yes"/>
      <point x="395" y="1185"/>
      <point x="381" y="1150"/>
      <point x="405" y="1073" type="curve" smooth="yes"/>
      <point x="429" y="996"/>
      <point x="457" y="982"/>
      <point x="491" y="996" type="curve" smooth="yes"/>
      <point x="561" y="1024"/>
      <point x="639" y="1042"/>
      <point x="707" y="1042" type="curve" smooth="yes"/>
      <point x="799" y="1042"/>
      <point x="843" y="996"/>
      <point x="843" y="926" type="curve" smooth="yes"/>
      <point x="843" y="839"/>
      <point x="782" y="786"/>
      <point x="670" y="766" type="curve" smooth="yes"/>
      <point x="557" y="746" type="line" smooth="yes"/>
      <point x="531" y="741"/>
      <point x="520" y="721"/>
      <point x="518" y="695" type="curve" smooth="yes"/>
      <point x="501" y="487" type="line" smooth="yes"/>
      <point x="498" y="456"/>
      <point x="516" y="439"/>
      <point x="593" y="439" type="curve" smooth="yes"/>
      <point x="670" y="439"/>
      <point x="695" y="456"/>
      <point x="703" y="487" type="curve" smooth="yes"/>
      <point x="727" y="578" type="line"/>
      <point x="999" y="637"/>
      <point x="1099" y="776"/>
      <point x="1099" y="957" type="curve" smooth="yes"/>
      <point x="1099" y="1144"/>
      <point x="968" y="1269"/>
      <point x="729" y="1269" type="curve" smooth="yes"/>
    </contour>
  </outline>
</glyph>
<glyph name="H" format="1">
  <advance width="1228"/>
  <unicode hex="0048"/>
  <outline>
    <contour>
      <point x="1040" y="1187" type="line" smooth="yes"/>
      <point x="995" y="1187"/>
      <point x="974" y="1169"/>
      <point x="966" y="1124" type="curve" smooth="yes"/>
      <point x="896" y="729" type="line"/>
      <point x="448" y="729" type="line"/>
      <point x="518" y="1124" type="line" smooth="yes"/>
      <point x="526" y="1169"/>
      <point x="511" y="1187"/>
      <point x="466" y="1187" type="curve" smooth="yes"/>
      <point x="342" y="1187" type="line" smooth="yes"/>
      <point x="297" y="1187"/>
      <point x="276" y="1169"/>
      <point x="268" y="1124" type="curve" smooth="yes"/>
      <point x="81" y="63" type="line" smooth="yes"/>
      <point x="73" y="18"/>
      <point x="88" y="0"/>
      <point x="133" y="0" type="curve" smooth="yes"/>
      <point x="257" y="0" type="line" smooth="yes"/>
      <point x="302" y="0"/>
      <point x="323" y="18"/>
      <point x="331" y="63" type="curve" smooth="yes"/>
      <point x="407" y="494" type="line"/>
      <point x="855" y="494" type="line"/>
      <point x="779" y="63" type="line" smooth="yes"/>
      <point x="771" y="18"/>
      <point x="786" y="0"/>
      <point x="831" y="0" type="curve" smooth="yes"/>
      <point x="955" y="0" type="line" smooth="yes"/>
      <point x="1000" y="0"/>
      <point x="1021" y="18"/>
      <point x="1029" y="63" type="curve" smooth="yes"/>
      <point x="1216" y="1124" type="line" smooth="yes"/>
      <point x="1224" y="1169"/>
      <point x="1209" y="1187"/>
      <point x="1164" y="1187" type="curve" smooth="yes"/>
    </contour>
  </outline>
</glyph>
<glyph name="K" format="1">
  <advance width="1228"/>
  <unicode hex="004B"/>
  <outline>
    <contour>
      <point x="402" y="644" type="line"/>
      <point x="391" y="326" type="line"/>
      <point x="1196" y="1036" type="line" smooth="yes"/>
      <point x="1246" y="1080"/>
      <point x="1233" y="1114"/>
      <point x="1161" y="1166" type="curve" smooth="yes"/>
      <point x="1090" y="1218"/>
      <point x="1052" y="1221"/>
      <point x="1009" y="1186" type="curve" smooth="yes"/>
    </contour>
    <contour>
      <point x="387" y="1187" type="line" smooth="yes"/>
      <point x="342" y="1187"/>
      <point x="321" y="1169"/>
      <point x="313" y="1124" type="curve" smooth="yes"/>
      <point x="126" y="63" type="line" smooth="yes"/>
      <point x="118" y="18"/>
      <point x="133" y="0"/>
      <point x="178" y="0" type="curve" smooth="yes"/>
      <point x="302" y="0" type="line" smooth="yes"/>
      <point x="347" y="0"/>
      <point x="368" y="18"/>
      <point x="376" y="63" type="curve" smooth="yes"/>
      <point x="563" y="1124" type="line" smooth="yes"/>
      <point x="571" y="1169"/>
      <point x="556" y="1187"/>
      <point x="511" y="1187" type="curve" smooth="yes"/>
    </contour>
    <contour>
      <point x="558" y="525" type="line"/>
      <point x="816" y="8" type="line" smooth="yes"/>
      <point x="836" y="-32"/>
      <point x="877" y="-32"/>
      <point x="962" y="10" type="curve" smooth="yes"/>
      <point x="1050" y="53"/>
      <point x="1065" y="84"/>
      <point x="1046" y="124" type="curve" smooth="yes"/>
      <point x="749" y="706" type="line"/>
    </contour>
  </outline>
</glyph>
<glyph name="N" format="1">
  <advance width="1228"/>
  <unicode hex="004E"/>
  <outline>
    <contour>
      <point x="1054" y="1187" type="line" smooth="yes"/>
      <point x="1009" y="1187"/>
      <point x="988" y="1169"/>
      <point x="980" y="1124" type="curve" smooth="yes"/>
      <point x="865" y="477" type="line"/>
      <point x="861" y="477" type="line"/>
      <point x="526" y="1163" type="line" smooth="yes"/>
      <point x="517" y="1181"/>
      <point x="500" y="1187"/>
      <point x="476" y="1187" type="curve" smooth="yes"/>
      <point x="342" y="1187" type="line" smooth="yes"/>
      <point x="297" y="1187"/>
      <point x="276" y="1169"/>
      <point x="268" y="1124" type="curve" smooth="yes"/>
      <point x="81" y="63" type="line" smooth="yes"/>
      <point x="73" y="18"/>
      <point x="88" y="0"/>
      <point x="133" y="0" type="curve" smooth="yes"/>
      <point x="243" y="0" type="line" smooth="yes"/>
      <point x="288" y="0"/>
      <point x="309" y="18"/>
      <point x="317" y="63" type="curve" smooth="yes"/>
      <point x="441" y="766" type="line"/>
      <point x="445" y="766" type="line"/>
      <point x="804" y="33" type="line" smooth="yes"/>
      <point x="821" y="-2"/>
      <point x="841" y="-22"/>
      <point x="904" y="-22" type="curve" smooth="yes"/>
      <point x="988" y="-22"/>
      <point x="1018" y="2"/>
      <point x="1025" y="44" type="curve" smooth="yes"/>
      <point x="1216" y="1124" type="line" smooth="yes"/>
      <point x="1224" y="1169"/>
      <point x="1209" y="1187"/>
      <point x="1164" y="1187" type="curve" smooth="yes"/>
    </contour>
  </outline>
</glyph>
<glyph name="O" format="1">
  <advance width="1228"/>
  <unicode hex="004F"/>
  <outline>
    <contour>
      <point x="525" y="1209"/>
      <point x="353" y="1120"/>
      <point x="238" y="956" type="curve" smooth="yes"/>
      <point x="141" y="818"/>
      <point x="91" y="629"/>
      <point x="91" y="471" type="curve" smooth="yes"/>
      <point x="91" y="171"/>
      <point x="273" y="-22"/>
      <point x="560" y="-22" type="curve" smooth="yes"/>
      <point x="772" y="-22"/>
      <point x="944" y="67"/>
      <point x="1059" y="231" type="curve" smooth="yes"/>
      <point x="1156" y="369"/>
      <point x="1206" y="558"/>
      <point x="1206" y="716" type="curve" smooth="yes"/>
      <point x="1206" y="1016"/>
      <point x="1024" y="1209"/>
      <point x="737" y="1209" type="curve" smooth="yes"/>
    </contour>
    <contour>
      <point x="869" y="972"/>
      <point x="944" y="880"/>
      <point x="944" y="715" type="curve" smooth="yes"/>
      <point x="944" y="595"/>
      <point x="907" y="442"/>
      <point x="833" y="343" type="curve" smooth="yes"/>
      <point x="771" y="260"/>
      <point x="688" y="215"/>
      <point x="580" y="215" type="curve" smooth="yes"/>
      <point x="428" y="215"/>
      <point x="353" y="307"/>
      <point x="353" y="472" type="curve" smooth="yes"/>
      <point x="353" y="592"/>
      <point x="390" y="745"/>
      <point x="464" y="844" type="curve" smooth="yes"/>
      <point x="526" y="927"/>
      <point x="609" y="972"/>
      <point x="717" y="972" type="curve" smooth="yes"/>
    </contour>
  </outline>
</glyph>
<glyph name="Q" format="1">
  <advance width="1228"/>
  <unicode hex="0051"/>
  <outline>
    <contour>
      <point x="529" y="424"/>
      <point x="518" y="397"/>
      <point x="539" y="357" type="curve" smooth="yes"/>
      <point x="655" y="136" type="line"/>
      <point x="696" y="13" type="line"/>
      <point x="773" y="-137" type="line" smooth="yes"/>
      <point x="794" y="-177"/>
      <point x="826" y="-181"/>
      <point x="911" y="-136" type="curve" smooth="yes"/>
      <point x="995" y="-92"/>
      <point x="1012" y="-63"/>
      <point x="991" y="-23" type="curve" smooth="yes"/>
      <point x="740" y="462" type="line" smooth="yes"/>
      <point x="719" y="502"/>
      <point x="690" y="507"/>
      <point x="610" y="465" type="curve" smooth="yes"/>
    </contour>
    <component base="O"/>
  </outline>
</glyph>
<glyph name="R" format="1">
  <advance width="1228"/>
  <unicode hex="0052"/>
  <outline>
    <contour>
      <point x="392" y="1187" type="line" smooth="yes"/>
      <point x="347" y="1187"/>
      <point x="326" y="1169"/>
      <point x="318" y="1124" type="curve" smooth="yes"/>
      <point x="131" y="63" type="line" smooth="yes"/>
      <point x="123" y="18"/>
      <point x="138" y="0"/>
      <point x="183" y="0" type="curve" smooth="yes"/>
      <point x="307" y="0" type="line" smooth="yes"/>
      <point x="352" y="0"/>
      <point x="373" y="18"/>
      <point x="381" y="63" type="curve" smooth="yes"/>
      <point x="440" y="401" type="line"/>
      <point x="730" y="401" type="line"/>
      <point x="1019" y="434"/>
      <point x="1152" y="611"/>
      <point x="1152" y="839" type="curve" smooth="yes"/>
      <point x="1152" y="1052"/>
      <point x="1023" y="1187"/>
      <point x="755" y="1187" type="curve" smooth="yes"/>
    </contour>
    <contour>
      <point x="606" y="417" type="line"/>
      <point x="779" y="18" type="line" smooth="yes"/>
      <point x="797" y="-23"/>
      <point x="840" y="-21"/>
      <point x="923" y="14" type="curve" smooth="yes"/>
      <point x="1012" y="52"/>
      <point x="1027" y="88"/>
      <point x="1009" y="128" type="curve" smooth="yes"/>
      <point x="856" y="469" type="line"/>
    </contour>
    <contour>
      <point x="838" y="952"/>
      <point x="894" y="908"/>
      <point x="894" y="818" type="curve" smooth="yes"/>
      <point x="894" y="694"/>
      <point x="813" y="636"/>
      <point x="665" y="636" type="curve" smooth="yes"/>
      <point x="481" y="636" type="line"/>
      <point x="537" y="952" type="line"/>
      <point x="712" y="952" type="line" smooth="yes"/>
    </contour>
  </outline>
</glyph>
<glyph name="S" format="1">
  <advance width="1228"/>
  <unicode hex="0053"/>
  <outline>
    <contour>
      <point x="420" y="1209"/>
      <point x="226" y="1056"/>
      <point x="226" y="807" type="curve" smooth="yes"/>
      <point x="226" y="713"/>
      <point x="260" y="650"/>
      <point x="313" y="606" type="curve" smooth="yes"/>
      <point x="425" y="512"/>
      <point x="619" y="504"/>
      <point x="730" y="457" type="curve" smooth="yes"/>
      <point x="781" y="435"/>
      <point x="814" y="405"/>
      <point x="814" y="355" type="curve" smooth="yes"/>
      <point x="814" y="266"/>
      <point x="736" y="215"/>
      <point x="588" y="215" type="curve" smooth="yes"/>
      <point x="469" y="215"/>
      <point x="340" y="240"/>
      <point x="250" y="285" type="curve" smooth="yes"/>
      <point x="213" y="304"/>
      <point x="176" y="292"/>
      <point x="145" y="205" type="curve" smooth="yes"/>
      <point x="117" y="127"/>
      <point x="126" y="86"/>
      <point x="165" y="65" type="curve" smooth="yes"/>
      <point x="270" y="9"/>
      <point x="436" y="-22"/>
      <point x="577" y="-22" type="curve" smooth="yes"/>
      <point x="898" y="-22"/>
      <point x="1077" y="137"/>
      <point x="1077" y="391" type="curve" smooth="yes"/>
      <point x="1077" y="509"/>
      <point x="1032" y="583"/>
      <point x="967" y="631" type="curve" smooth="yes"/>
      <point x="847" y="720"/>
      <point x="658" y="724"/>
      <point x="558" y="764" type="curve" smooth="yes"/>
      <point x="516" y="781"/>
      <point x="489" y="803"/>
      <point x="489" y="841" type="curve" smooth="yes"/>
      <point x="489" y="922"/>
      <point x="564" y="972"/>
      <point x="685" y="972" type="curve" smooth="yes"/>
      <point x="804" y="972"/>
      <point x="929" y="946"/>
      <point x="1025" y="910" type="curve" smooth="yes"/>
      <point x="1063" y="896"/>
      <point x="1106" y="909"/>
      <point x="1130" y="995" type="curve" smooth="yes"/>
      <point x="1153" y="1078"/>
      <point x="1136" y="1117"/>
      <point x="1094" y="1135" type="curve" smooth="yes"/>
      <point x="984" y="1182"/>
      <point x="848" y="1209"/>
      <point x="707" y="1209" type="curve" smooth="yes"/>
    </contour>
  </outline>
</glyph>
<glyph name="Y" format="1">
  <advance width="1228"/>
  <unicode hex="0059"/>
  <outline>
    <contour>
      <point x="1091" y="1210"/>
      <point x="1050" y="1210"/>
      <point x="1017" y="1169" type="curve" smooth="yes"/>
      <point x="627" y="673" type="line"/>
      <point x="673" y="667" type="line"/>
      <point x="457" y="1169" type="line" smooth="yes"/>
      <point x="439" y="1210"/>
      <point x="405" y="1209"/>
      <point x="318" y="1174" type="curve" smooth="yes"/>
      <point x="227" y="1137"/>
      <point x="210" y="1110"/>
      <point x="228" y="1069" type="curve" smooth="yes"/>
      <point x="524" y="409" type="line"/>
      <point x="719" y="409" type="line"/>
      <point x="1232" y="1049" type="line" smooth="yes"/>
      <point x="1267" y="1093"/>
      <point x="1262" y="1132"/>
      <point x="1172" y="1173" type="curve" smooth="yes"/>
    </contour>
    <contour>
      <point x="518" y="566" type="line"/>
      <point x="430" y="63" type="line" smooth="yes"/>
      <point x="422" y="18"/>
      <point x="437" y="0"/>
      <point x="482" y="0" type="curve" smooth="yes"/>
      <point x="606" y="0" type="line" smooth="yes"/>
      <point x="651" y="0"/>
      <point x="672" y="18"/>
      <point x="680" y="63" type="curve" smooth="yes"/>
      <point x="768" y="566" type="line"/>
    </contour>
  </outline>
</glyph>
<glyph name="c" format="1">
  <advance width="1228"/>
  <unicode hex="0063"/>
  <outline>
    <contour>
      <point x="390" y="946"/>
      <point x="145" y="724"/>
      <point x="145" y="400" type="curve" smooth="yes"/>
      <point x="145" y="152"/>
      <point x="308" y="-22"/>
      <point x="594" y="-22" type="curve" smooth="yes"/>
      <point x="733" y="-22"/>
      <point x="864" y="5"/>
      <point x="998" y="62" type="curve"/>
      <point x="1045" y="83"/>
      <point x="1059" y="124"/>
      <point x="1034" y="205" type="curve" smooth="yes"/>
      <point x="1010" y="281"/>
      <point x="976" y="306"/>
      <point x="932" y="285" type="curve" smooth="yes"/>
      <point x="831" y="238"/>
      <point x="720" y="210"/>
      <point x="621" y="210" type="curve" smooth="yes"/>
      <point x="486" y="210"/>
      <point x="410" y="290"/>
      <point x="410" y="423" type="curve" smooth="yes"/>
      <point x="410" y="603"/>
      <point x="542" y="714"/>
      <point x="709" y="714" type="curve" smooth="yes"/>
      <point x="805" y="714"/>
      <point x="898" y="690"/>
      <point x="985" y="641" type="curve" smooth="yes"/>
      <point x="1021" y="620"/>
      <point x="1062" y="629"/>
      <point x="1102" y="708" type="curve" smooth="yes"/>
      <point x="1143" y="789"/>
      <point x="1129" y="836"/>
      <point x="1091" y="857" type="curve" smooth="yes"/>
      <point x="986" y="916"/>
      <point x="852" y="946"/>
      <point x="720" y="946" type="curve" smooth="yes"/>
    </contour>
  </outline>
</glyph>
<glyph name="d" format="1">
  <advance width="1228"/>
  <unicode hex="0064"/>
  <outline>
    <contour>
      <point x="1035" y="1312" type="line" smooth="yes"/>
      <point x="990" y="1312"/>
      <point x="969" y="1294"/>
      <point x="961" y="1249" type="curve" smooth="yes"/>
      <point x="878" y="779" type="line"/>
      <point x="902" y="799" type="line"/>
      <point x="848" y="889"/>
      <point x="751" y="946"/>
      <point x="634" y="946" type="curve" smooth="yes"/>
      <point x="291" y="946"/>
      <point x="129" y="632"/>
      <point x="129" y="380" type="curve" smooth="yes"/>
      <point x="129" y="144"/>
      <point x="265" y="-22"/>
      <point x="484" y="-22" type="curve" smooth="yes"/>
      <point x="611" y="-22"/>
      <point x="716" y="39"/>
      <point x="792" y="125" type="curve"/>
      <point x="782" y="63" type="line" smooth="yes"/>
      <point x="775" y="18"/>
      <point x="789" y="0"/>
      <point x="834" y="0" type="curve" smooth="yes"/>
      <point x="928" y="0" type="line" smooth="yes"/>
      <point x="973" y="0"/>
      <point x="994" y="18"/>
      <point x="1002" y="63" type="curve" smooth="yes"/>
      <point x="1211" y="1249" type="line" smooth="yes"/>
      <point x="1219" y="1294"/>
      <point x="1204" y="1312"/>
      <point x="1159" y="1312" type="curve" smooth="yes"/>
    </contour>
    <contour>
      <point x="753" y="714"/>
      <point x="835" y="647"/>
      <point x="835" y="522" type="curve" smooth="yes"/>
      <point x="835" y="377"/>
      <point x="736" y="210"/>
      <point x="556" y="210" type="curve" smooth="yes"/>
      <point x="451" y="210"/>
      <point x="389" y="279"/>
      <point x="389" y="391" type="curve" smooth="yes"/>
      <point x="389" y="525"/>
      <point x="462" y="714"/>
      <point x="644" y="714" type="curve" smooth="yes"/>
    </contour>
  </outline>
</glyph>
<glyph name="l" format="1">
  <advance width="1228"/>
  <unicode hex="006C"/>
  <outline>
    <contour>
      <point x="341" y="1312" type="line" smooth="yes"/>
      <point x="296" y="1312"/>
      <point x="273" y="1292"/>
      <point x="258" y="1199" type="curve" smooth="yes"/>
      <point x="243" y="1106"/>
      <point x="256" y="1087"/>
      <point x="301" y="1087" type="curve" smooth="yes"/>
      <point x="534" y="1087" type="line"/>
      <point x="408" y="368" type="line" smooth="yes"/>
      <point x="402" y="334"/>
      <point x="399" y="302"/>
      <point x="399" y="272" type="curve" smooth="yes"/>
      <point x="399" y="86"/>
      <point x="511" y="-22"/>
      <point x="706" y="-22" type="curve" smooth="yes"/>
      <point x="806" y="-22"/>
      <point x="898" y="-3"/>
      <point x="985" y="27" type="curve" smooth="yes"/>
      <point x="1045" y="48"/>
      <point x="1046" y="90"/>
      <point x="1032" y="153" type="curve" smooth="yes"/>
      <point x="1017" y="223"/>
      <point x="996" y="257"/>
      <point x="940" y="242" type="curve" smooth="yes"/>
      <point x="871" y="224"/>
      <point x="809" y="215"/>
      <point x="750" y="215" type="curve" smooth="yes"/>
      <point x="687" y="215"/>
      <point x="653" y="246"/>
      <point x="653" y="318" type="curve" smooth="yes"/>
      <point x="653" y="334"/>
      <point x="655" y="352"/>
      <point x="658" y="371" type="curve" smooth="yes"/>
      <point x="813" y="1249" type="line" smooth="yes"/>
      <point x="821" y="1294"/>
      <point x="806" y="1312"/>
      <point x="761" y="1312" type="curve" smooth="yes"/>
    </contour>
  </outline>
</glyph>
<glyph name="o" format="1">
  <advance width="1228"/>
  <unicode hex="006F"/>
  <outline>
    <contour>
      <point x="289" y="946"/>
      <point x="130" y="639"/>
      <point x="130" y="387" type="curve" smooth="yes"/>
      <point x="130" y="148"/>
      <point x="293" y="-22"/>
      <point x="572" y="-22" type="curve" smooth="yes"/>
      <point x="961" y="-22"/>
      <point x="1120" y="285"/>
      <point x="1120" y="537" type="curve" smooth="yes"/>
      <point x="1120" y="776"/>
      <point x="957" y="946"/>
      <point x="678" y="946" type="curve" smooth="yes"/>
    </contour>
    <contour>
      <point x="785" y="714"/>
      <point x="859" y="639"/>
      <point x="859" y="518" type="curve" smooth="yes"/>
      <point x="859" y="356"/>
      <point x="760" y="210"/>
      <point x="590" y="210" type="curve" smooth="yes"/>
      <point x="465" y="210"/>
      <point x="391" y="285"/>
      <point x="391" y="406" type="curve" smooth="yes"/>
      <point x="391" y="568"/>
      <point x="490" y="714"/>
      <point x="660" y="714" type="curve" smooth="yes"/>
    </contour>
  </outline>
</glyph>
<glyph name="cent" format="1">
  <advance width="1228"/>
  <unicode hex="00A2"/>
  <outline>
    <contour>
      <point x="734" y="1312"/>
      <point x="713" y="1294"/>
      <point x="705" y="1249" type="curve" smooth="yes"/>
      <point x="474" y="-62" type="line" smooth="yes"/>
      <point x="466" y="-107"/>
      <point x="480" y="-125"/>
      <point x="555" y="-125" type="curve" smooth="yes"/>
      <point x="630" y="-125"/>
      <point x="652" y="-107"/>
      <point x="660" y="-62" type="curve" smooth="yes"/>
      <point x="891" y="1249" type="line" smooth="yes"/>
      <point x="899" y="1294"/>
      <point x="884" y="1312"/>
      <point x="809" y="1312" type="curve" smooth="yes"/>
    </contour>
    <component base="c" xOffset="25" yOffset="140"/>
  </outline>
</glyph>
<glyph name="sterling" format="1">
  <advance width="1228"/>
  <unicode hex="00A3"/>
  <outline>
    <contour>
      <point x="520" y="1209"/>
      <point x="369" y="1040"/>
      <point x="369" y="802" type="curve" smooth="yes"/>
      <point x="369" y="686"/>
      <point x="408" y="613"/>
      <point x="408" y="506" type="curve" smooth="yes"/>
      <point x="408" y="379"/>
      <point x="352" y="299"/>
      <point x="226" y="204" type="curve" smooth="yes"/>
      <point x="198" y="183"/>
      <point x="188" y="160"/>
      <point x="188" y="127" type="curve" smooth="yes"/>
      <point x="188" y="69"/>
      <point x="211" y="0"/>
      <point x="241" y="0" type="curve" smooth="yes"/>
      <point x="885" y="0" type="line" smooth="yes"/>
      <point x="930" y="0"/>
      <point x="950" y="17"/>
      <point x="967" y="112" type="curve" smooth="yes"/>
      <point x="984" y="207"/>
      <point x="969" y="225"/>
      <point x="924" y="225" type="curve" smooth="yes"/>
      <point x="524" y="225" type="line"/>
      <point x="611" y="319"/>
      <point x="648" y="419"/>
      <point x="648" y="544" type="curve" smooth="yes"/>
      <point x="648" y="651"/>
      <point x="615" y="708"/>
      <point x="615" y="799" type="curve" smooth="yes"/>
      <point x="615" y="919"/>
      <point x="676" y="982"/>
      <point x="780" y="982" type="curve" smooth="yes"/>
      <point x="850" y="982"/>
      <point x="917" y="964"/>
      <point x="979" y="936" type="curve" smooth="yes"/>
      <point x="1008" y="923"/>
      <point x="1041" y="937"/>
      <point x="1075" y="1014" type="curve" smooth="yes"/>
      <point x="1111" y="1095"/>
      <point x="1094" y="1129"/>
      <point x="1058" y="1148" type="curve" smooth="yes"/>
      <point x="985" y="1187"/>
      <point x="887" y="1209"/>
      <point x="783" y="1209" type="curve" smooth="yes"/>
    </contour>
    <contour>
      <point x="304" y="690" type="line" smooth="yes"/>
      <point x="259" y="690"/>
      <point x="238" y="672"/>
      <point x="221" y="577" type="curve" smooth="yes"/>
      <point x="204" y="482"/>
      <point x="219" y="465"/>
      <point x="264" y="465" type="curve" smooth="yes"/>
      <point x="876" y="465" type="line" smooth="yes"/>
      <point x="921" y="465"/>
      <point x="942" y="482"/>
      <point x="959" y="577" type="curve" smooth="yes"/>
      <point x="976" y="672"/>
      <point x="961" y="690"/>
      <point x="916" y="690" type="curve" smooth="yes"/>
    </contour>
  </outline>
</glyph>
<glyph name="section" format="1">
  <advance width="1228"/>
  <unicode hex="00A7"/>
  <outline>
    <contour>
      <point x="684" y="1187" type="line" smooth="yes"/>
      <point x="452" y="1187"/>
      <point x="363" y="1028"/>
      <point x="363" y="877" type="curve" smooth="yes"/>
      <point x="363" y="771"/>
      <point x="414" y="688"/>
      <point x="510" y="636" type="curve" smooth="yes"/>
      <point x="742" y="510" type="line" smooth="yes"/>
      <point x="793" y="483"/>
      <point x="811" y="453"/>
      <point x="811" y="408" type="curve" smooth="yes"/>
      <point x="811" y="332"/>
      <point x="758" y="293"/>
      <point x="698" y="266" type="curve"/>
      <point x="798" y="105" type="line"/>
      <point x="953" y="177"/>
      <point x="1047" y="281"/>
      <point x="1047" y="443" type="curve" smooth="yes"/>
      <point x="1047" y="561"/>
      <point x="993" y="641"/>
      <point x="889" y="698" type="curve" smooth="yes"/>
      <point x="680" y="813" type="line" smooth="yes"/>
      <point x="627" y="842"/>
      <point x="608" y="868"/>
      <point x="608" y="908" type="curve" smooth="yes"/>
      <point x="608" y="952"/>
      <point x="639" y="982"/>
      <point x="700" y="982" type="curve" smooth="yes"/>
      <point x="1018" y="982" type="line"/>
      <point x="1063" y="982"/>
      <point x="1084" y="1002"/>
      <point x="1099" y="1084" type="curve" smooth="yes"/>
      <point x="1113" y="1166"/>
      <point x="1099" y="1187"/>
      <point x="1054" y="1187" type="curve" smooth="yes"/>
    </contour>
    <contour>
      <point x="303" y="780"/>
      <point x="209" y="676"/>
      <point x="209" y="514" type="curve" smooth="yes"/>
      <point x="209" y="396"/>
      <point x="263" y="316"/>
      <point x="367" y="259" type="curve" smooth="yes"/>
      <point x="576" y="144" type="line" smooth="yes"/>
      <point x="629" y="115"/>
      <point x="648" y="89"/>
      <point x="648" y="49" type="curve" smooth="yes"/>
      <point x="648" y="5"/>
      <point x="617" y="-25"/>
      <point x="556" y="-25" type="curve" smooth="yes"/>
      <point x="238" y="-25" type="line" smooth="yes"/>
      <point x="193" y="-25"/>
      <point x="172" y="-45"/>
      <point x="157" y="-127" type="curve" smooth="yes"/>
      <point x="143" y="-209"/>
      <point x="157" y="-230"/>
      <point x="202" y="-230" type="curve" smooth="yes"/>
      <point x="572" y="-230" type="line" smooth="yes"/>
      <point x="804" y="-230"/>
      <point x="893" y="-71"/>
      <point x="893" y="80" type="curve" smooth="yes"/>
      <point x="893" y="186"/>
      <point x="842" y="269"/>
      <point x="746" y="321" type="curve" smooth="yes"/>
      <point x="514" y="447" type="line" smooth="yes"/>
      <point x="463" y="474"/>
      <point x="445" y="504"/>
      <point x="445" y="549" type="curve" smooth="yes"/>
      <point x="445" y="625"/>
      <point x="498" y="664"/>
      <point x="558" y="691" type="curve"/>
      <point x="458" y="852" type="line"/>
    </contour>
  </outline>
</glyph>
<glyph name="macron" format="1">
  <advance width="1228"/>
  <unicode hex="00AF"/>
  <outline>
    <contour>
      <point x="497" y="1275" type="line" smooth="yes"/>
      <point x="452" y="1275"/>
      <point x="431" y="1257"/>
      <point x="416" y="1172" type="curve" smooth="yes"/>
      <point x="401" y="1087"/>
      <point x="416" y="1070"/>
      <point x="461" y="1070" type="curve" smooth="yes"/>
      <point x="1003" y="1070" type="line" smooth="yes"/>
      <point x="1048" y="1070"/>
      <point x="1069" y="1087"/>
      <point x="1084" y="1172" type="curve" smooth="yes"/>
      <point x="1099" y="1257"/>
      <point x="1084" y="1275"/>
      <point x="1039" y="1275" type="curve" smooth="yes"/>
    </contour>
  </outline>
</glyph>
<glyph name="twosuperior" format="1">
  <advance width="1228"/>
  <unicode hex="00B2"/>
  <outline>
    <contour>
      <point x="686" y="1334"/>
      <point x="580" y="1312"/>
      <point x="488" y="1272" type="curve" smooth="yes"/>
      <point x="453" y="1257"/>
      <point x="436" y="1227"/>
      <point x="452" y="1165" type="curve" smooth="yes"/>
      <point x="468" y="1103"/>
      <point x="499" y="1089"/>
      <point x="532" y="1103" type="curve" smooth="yes"/>
      <point x="614" y="1137"/>
      <point x="691" y="1156"/>
      <point x="759" y="1156" type="curve" smooth="yes"/>
      <point x="824" y="1156"/>
      <point x="859" y="1122"/>
      <point x="859" y="1072" type="curve" smooth="yes"/>
      <point x="859" y="1011"/>
      <point x="821" y="976"/>
      <point x="724" y="908" type="curve" smooth="yes"/>
      <point x="377" y="665" type="line" smooth="yes"/>
      <point x="356" y="650"/>
      <point x="338" y="623"/>
      <point x="331" y="583" type="curve" smooth="yes"/>
      <point x="319" y="513"/>
      <point x="335" y="483"/>
      <point x="367" y="483" type="curve" smooth="yes"/>
      <point x="950" y="483" type="line" smooth="yes"/>
      <point x="984" y="483"/>
      <point x="1001" y="502"/>
      <point x="1013" y="570" type="curve" smooth="yes"/>
      <point x="1025" y="638"/>
      <point x="1014" y="657"/>
      <point x="980" y="657" type="curve" smooth="yes"/>
      <point x="639" y="657" type="line"/>
      <point x="839" y="794" type="line" smooth="yes"/>
      <point x="976" y="888"/>
      <point x="1063" y="960"/>
      <point x="1063" y="1094" type="curve" smooth="yes"/>
      <point x="1063" y="1235"/>
      <point x="966" y="1334"/>
      <point x="791" y="1334" type="curve" smooth="yes"/>
    </contour>
  </outline>
</glyph>
<glyph name="cedilla" format="1">
  <advance width="1228"/>
  <unicode hex="00B8"/>
  <outline>
    <contour>
      <point x="443" y="28" type="line"/>
      <point x="407" y="-180" type="line" smooth="yes"/>
      <point x="402" y="-210"/>
      <point x="417" y="-219"/>
      <point x="439" y="-217" type="curve" smooth="yes"/>
      <point x="514" y="-211"/>
      <point x="568" y="-219"/>
      <point x="568" y="-261" type="curve" smooth="yes"/>
      <point x="568" y="-292"/>
      <point x="536" y="-313"/>
      <point x="461" y="-313" type="curve" smooth="yes"/>
      <point x="407" y="-313"/>
      <point x="349" y="-300"/>
      <point x="303" y="-284" type="curve" smooth="yes"/>
      <point x="277" y="-275"/>
      <point x="249" y="-296"/>
      <point x="232" y="-345" type="curve" smooth="yes"/>
      <point x="215" y="-395"/>
      <point x="221" y="-428"/>
      <point x="247" y="-437" type="curve" smooth="yes"/>
      <point x="312" y="-460"/>
      <point x="396" y="-472"/>
      <point x="487" y="-472" type="curve" smooth="yes"/>
      <point x="698" y="-472"/>
      <point x="792" y="-378"/>
      <point x="792" y="-252" type="curve" smooth="yes"/>
      <point x="792" y="-153"/>
      <point x="726" y="-93"/>
      <point x="609" y="-83" type="curve"/>
      <point x="628" y="28" type="line"/>
    </contour>
  </outline>
</glyph>
<glyph name="onequarter" format="1">
  <advance width="1228"/>
  <unicode hex="00BC"/>
  <outline>
    <contour>
      <point x="155" y="1261" type="line" smooth="yes"/>
      <point x="118" y="1244"/>
      <point x="112" y="1221"/>
      <point x="130" y="1175" type="curve" smooth="yes"/>
      <point x="151" y="1124"/>
      <point x="173" y="1117"/>
      <point x="204" y="1132" type="curve" smooth="yes"/>
      <point x="437" y="1242" type="line"/>
      <point x="347" y="1298" type="line"/>
      <point x="263" y="826" type="line"/>
      <point x="115" y="826" type="line" smooth="yes"/>
      <point x="84" y="826"/>
      <point x="68" y="804"/>
      <point x="59" y="755" type="curve" smooth="yes"/>
      <point x="50" y="705"/>
      <point x="58" y="684"/>
      <point x="89" y="684" type="curve" smooth="yes"/>
      <point x="560" y="684" type="line" smooth="yes"/>
      <point x="591" y="684"/>
      <point x="607" y="705"/>
      <point x="616" y="755" type="curve" smooth="yes"/>
      <point x="625" y="804"/>
      <point x="616" y="826"/>
      <point x="585" y="826" type="curve" smooth="yes"/>
      <point x="426" y="826" type="line"/>
      <point x="517" y="1344" type="line" smooth="yes"/>
      <point x="525" y="1390"/>
      <point x="476" y="1404"/>
      <point x="439" y="1387" type="curve" smooth="yes"/>
    </contour>
    <contour>
      <point x="91" y="319" type="line" smooth="yes"/>
      <point x="61" y="303"/>
      <point x="58" y="276"/>
      <point x="80" y="230" type="curve" smooth="yes"/>
      <point x="102" y="184"/>
      <point x="124" y="178"/>
      <point x="149" y="190" type="curve" smooth="yes"/>
      <point x="1178" y="711" type="line" smooth="yes"/>
      <point x="1208" y="727"/>
      <point x="1211" y="754"/>
      <point x="1189" y="800" type="curve" smooth="yes"/>
      <point x="1167" y="846"/>
      <point x="1145" y="852"/>
      <point x="1120" y="840" type="curve" smooth="yes"/>
    </contour>
    <contour>
      <point x="1013" y="503"/>
      <point x="977" y="490"/>
      <point x="955" y="466" type="curve" smooth="yes"/>
      <point x="574" y="83" type="line" smooth="yes"/>
      <point x="557" y="66"/>
      <point x="550" y="51"/>
      <point x="550" y="30" type="curve" smooth="yes"/>
      <point x="550" y="-17"/>
      <point x="570" y="-63"/>
      <point x="597" y="-63" type="curve" smooth="yes"/>
      <point x="888" y="-63" type="line"/>
      <point x="867" y="-184" type="line" smooth="yes"/>
      <point x="862" y="-210"/>
      <point x="885" y="-224"/>
      <point x="951" y="-224" type="curve" smooth="yes"/>
      <point x="1010" y="-224"/>
      <point x="1027" y="-210"/>
      <point x="1032" y="-184" type="curve" smooth="yes"/>
      <point x="1054" y="-63" type="line"/>
      <point x="1128" y="-63" type="line" smooth="yes"/>
      <point x="1159" y="-63"/>
      <point x="1176" y="-42"/>
      <point x="1185" y="8" type="curve" smooth="yes"/>
      <point x="1193" y="57"/>
      <point x="1185" y="79"/>
      <point x="1154" y="79" type="curve" smooth="yes"/>
      <point x="1078" y="79" type="line"/>
      <point x="1145" y="457" type="line" smooth="yes"/>
      <point x="1150" y="484"/>
      <point x="1122" y="503"/>
      <point x="1061" y="503" type="curve" smooth="yes"/>
    </contour>
    <contour>
      <point x="913" y="79" type="line"/>
      <point x="763" y="79" type="line"/>
      <point x="965" y="291" type="line"/>
    </contour>
  </outline>
</glyph>
<glyph name="onehalf" format="1">
  <advance width="1228"/>
  <unicode hex="00BD"/>
  <outline>
    <contour>
      <point x="899" y="494"/>
      <point x="810" y="475"/>
      <point x="733" y="442" type="curve" smooth="yes"/>
      <point x="704" y="429"/>
      <point x="690" y="404"/>
      <point x="703" y="353" type="curve" smooth="yes"/>
      <point x="717" y="301"/>
      <point x="743" y="289"/>
      <point x="770" y="301" type="curve" smooth="yes"/>
      <point x="839" y="329"/>
      <point x="903" y="345"/>
      <point x="960" y="345" type="curve" smooth="yes"/>
      <point x="1014" y="345"/>
      <point x="1043" y="317"/>
      <point x="1043" y="275" type="curve" smooth="yes"/>
      <point x="1043" y="224"/>
      <point x="1012" y="195"/>
      <point x="931" y="138" type="curve" smooth="yes"/>
      <point x="641" y="-64" type="line" smooth="yes"/>
      <point x="623" y="-77"/>
      <point x="608" y="-99"/>
      <point x="602" y="-133" type="curve" smooth="yes"/>
      <point x="592" y="-191"/>
      <point x="606" y="-216"/>
      <point x="632" y="-216" type="curve" smooth="yes"/>
      <point x="1119" y="-216" type="line" smooth="yes"/>
      <point x="1148" y="-216"/>
      <point x="1162" y="-200"/>
      <point x="1172" y="-144" type="curve" smooth="yes"/>
      <point x="1182" y="-87"/>
      <point x="1173" y="-71"/>
      <point x="1144" y="-71" type="curve" smooth="yes"/>
      <point x="860" y="-71" type="line"/>
      <point x="1027" y="43" type="line" smooth="yes"/>
      <point x="1141" y="122"/>
      <point x="1214" y="182"/>
      <point x="1214" y="293" type="curve" smooth="yes"/>
      <point x="1214" y="411"/>
      <point x="1133" y="494"/>
      <point x="986" y="494" type="curve" smooth="yes"/>
    </contour>
    <contour>
      <point x="95" y="369" type="line" smooth="yes"/>
      <point x="67" y="354"/>
      <point x="69" y="326"/>
      <point x="99" y="280" type="curve" smooth="yes"/>
      <point x="129" y="234"/>
      <point x="152" y="228"/>
      <point x="175" y="240" type="curve" smooth="yes"/>
      <point x="1174" y="761" type="line" smooth="yes"/>
      <point x="1202" y="776"/>
      <point x="1200" y="804"/>
      <point x="1170" y="850" type="curve" smooth="yes"/>
      <point x="1140" y="896"/>
      <point x="1117" y="902"/>
      <point x="1094" y="890" type="curve" smooth="yes"/>
    </contour>
    <contour>
      <point x="135" y="1261" type="line" smooth="yes"/>
      <point x="98" y="1244"/>
      <point x="92" y="1221"/>
      <point x="110" y="1175" type="curve" smooth="yes"/>
      <point x="131" y="1124"/>
      <point x="153" y="1117"/>
      <point x="184" y="1132" type="curve" smooth="yes"/>
      <point x="417" y="1242" type="line"/>
      <point x="327" y="1298" type="line"/>
      <point x="243" y="826" type="line"/>
      <point x="95" y="826" type="line" smooth="yes"/>
      <point x="64" y="826"/>
      <point x="48" y="804"/>
      <point x="39" y="755" type="curve" smooth="yes"/>
      <point x="30" y="705"/>
      <point x="38" y="684"/>
      <point x="69" y="684" type="curve" smooth="yes"/>
      <point x="540" y="684" type="line" smooth="yes"/>
      <point x="571" y="684"/>
      <point x="587" y="705"/>
      <point x="596" y="755" type="curve" smooth="yes"/>
      <point x="605" y="804"/>
      <point x="596" y="826"/>
      <point x="565" y="826" type="curve" smooth="yes"/>
      <point x="406" y="826" type="line"/>
      <point x="497" y="1344" type="line" smooth="yes"/>
      <point x="505" y="1390"/>
      <point x="456" y="1404"/>
      <point x="419" y="1387" type="curve" smooth="yes"/>
    </contour>
  </outline>
</glyph>
<glyph name="threequarters" format="1">
  <advance width="1228"/>
  <unicode hex="00BE"/>
  <outline>
    <contour>
      <point x="332" y="1394"/>
      <point x="241" y="1378"/>
      <point x="166" y="1349" type="curve" smooth="yes"/>
      <point x="137" y="1337"/>
      <point x="124" y="1313"/>
      <point x="137" y="1260" type="curve" smooth="yes"/>
      <point x="150" y="1207"/>
      <point x="175" y="1199"/>
      <point x="202" y="1209" type="curve" smooth="yes"/>
      <point x="270" y="1235"/>
      <point x="337" y="1249"/>
      <point x="393" y="1249" type="curve" smooth="yes"/>
      <point x="460" y="1249"/>
      <point x="491" y="1226"/>
      <point x="491" y="1187" type="curve" smooth="yes"/>
      <point x="491" y="1146"/>
      <point x="461" y="1105"/>
      <point x="373" y="1105" type="curve" smooth="yes"/>
      <point x="287" y="1105" type="line" smooth="yes"/>
      <point x="261" y="1105"/>
      <point x="243" y="1087"/>
      <point x="234" y="1033" type="curve" smooth="yes"/>
      <point x="225" y="980"/>
      <point x="236" y="962"/>
      <point x="261" y="962" type="curve" smooth="yes"/>
      <point x="364" y="962" type="line" smooth="yes"/>
      <point x="415" y="962"/>
      <point x="442" y="940"/>
      <point x="442" y="903" type="curve" smooth="yes"/>
      <point x="442" y="849"/>
      <point x="404" y="813"/>
      <point x="304" y="813" type="curve" smooth="yes"/>
      <point x="241" y="813"/>
      <point x="170" y="833"/>
      <point x="118" y="856" type="curve" smooth="yes"/>
      <point x="99" y="865"/>
      <point x="71" y="846"/>
      <point x="54" y="801" type="curve" smooth="yes"/>
      <point x="37" y="754"/>
      <point x="43" y="726"/>
      <point x="69" y="714" type="curve" smooth="yes"/>
      <point x="127" y="687"/>
      <point x="220" y="669"/>
      <point x="302" y="669" type="curve" smooth="yes"/>
      <point x="554" y="669"/>
      <point x="616" y="793"/>
      <point x="616" y="897" type="curve" smooth="yes"/>
      <point x="616" y="957"/>
      <point x="584" y="1004"/>
      <point x="530" y="1029" type="curve"/>
      <point x="615" y="1063"/>
      <point x="661" y="1122"/>
      <point x="661" y="1208" type="curve" smooth="yes"/>
      <point x="661" y="1318"/>
      <point x="575" y="1394"/>
      <point x="413" y="1394" type="curve" smooth="yes"/>
    </contour>
    <contour>
      <point x="1033" y="503"/>
      <point x="997" y="490"/>
      <point x="975" y="466" type="curve" smooth="yes"/>
      <point x="594" y="83" type="line" smooth="yes"/>
      <point x="577" y="66"/>
      <point x="570" y="51"/>
      <point x="570" y="30" type="curve" smooth="yes"/>
      <point x="570" y="-17"/>
      <point x="590" y="-63"/>
      <point x="617" y="-63" type="curve" smooth="yes"/>
      <point x="908" y="-63" type="line"/>
      <point x="887" y="-184" type="line" smooth="yes"/>
      <point x="882" y="-210"/>
      <point x="905" y="-224"/>
      <point x="971" y="-224" type="curve" smooth="yes"/>
      <point x="1030" y="-224"/>
      <point x="1047" y="-210"/>
      <point x="1052" y="-184" type="curve" smooth="yes"/>
      <point x="1074" y="-63" type="line"/>
      <point x="1148" y="-63" type="line" smooth="yes"/>
      <point x="1179" y="-63"/>
      <point x="1196" y="-42"/>
      <point x="1205" y="8" type="curve" smooth="yes"/>
      <point x="1213" y="57"/>
      <point x="1205" y="79"/>
      <point x="1174" y="79" type="curve" smooth="yes"/>
      <point x="1098" y="79" type="line"/>
      <point x="1165" y="457" type="line" smooth="yes"/>
      <point x="1170" y="484"/>
      <point x="1142" y="503"/>
      <point x="1081" y="503" type="curve" smooth="yes"/>
    </contour>
    <contour>
      <point x="933" y="79" type="line"/>
      <point x="783" y="79" type="line"/>
      <point x="985" y="291" type="line"/>
    </contour>
    <contour>
      <point x="95" y="329" type="line" smooth="yes"/>
      <point x="67" y="314"/>
      <point x="69" y="286"/>
      <point x="99" y="240" type="curve" smooth="yes"/>
      <point x="129" y="194"/>
      <point x="152" y="188"/>
      <point x="175" y="200" type="curve" smooth="yes"/>
      <point x="1174" y="721" type="line" smooth="yes"/>
      <point x="1202" y="736"/>
      <point x="1200" y="764"/>
      <point x="1170" y="810" type="curve" smooth="yes"/>
      <point x="1140" y="856"/>
      <point x="1117" y="862"/>
      <point x="1094" y="850" type="curve" smooth="yes"/>
    </contour>
  </outline>
</glyph>
<glyph name="AE" format="1">
  <advance width="1228"/>
  <unicode hex="00C6"/>
  <outline>
    <contour>
      <point x="557" y="1187" type="line" smooth="yes"/>
      <point x="512" y="1187"/>
      <point x="492" y="1168"/>
      <point x="473" y="1130" type="curve" smooth="yes"/>
      <point x="-53" y="110" type="line" smooth="yes"/>
      <point x="-76" y="65"/>
      <point x="-72" y="28"/>
      <point x="16" y="0" type="curve" smooth="yes"/>
      <point x="103" y="-28"/>
      <point x="157" y="-23"/>
      <point x="179" y="21" type="curve" smooth="yes"/>
      <point x="395" y="450" type="line"/>
      <point x="402" y="480" type="line"/>
      <point x="630" y="952" type="line"/>
      <point x="647" y="952" type="line"/>
      <point x="491" y="63" type="line" smooth="yes"/>
      <point x="483" y="18"/>
      <point x="498" y="0"/>
      <point x="543" y="0" type="curve" smooth="yes"/>
      <point x="1047" y="0" type="line" smooth="yes"/>
      <point x="1092" y="0"/>
      <point x="1113" y="22"/>
      <point x="1130" y="117" type="curve" smooth="yes"/>
      <point x="1147" y="212"/>
      <point x="1133" y="235"/>
      <point x="1088" y="235" type="curve" smooth="yes"/>
      <point x="771" y="235" type="line"/>
      <point x="817" y="494" type="line"/>
      <point x="1051" y="494" type="line" smooth="yes"/>
      <point x="1096" y="494"/>
      <point x="1117" y="516"/>
      <point x="1134" y="611" type="curve" smooth="yes"/>
      <point x="1151" y="706"/>
      <point x="1137" y="729"/>
      <point x="1092" y="729" type="curve" smooth="yes"/>
      <point x="858" y="729" type="line"/>
      <point x="897" y="952" type="line"/>
      <point x="1194" y="952" type="line" smooth="yes"/>
      <point x="1239" y="952"/>
      <point x="1261" y="974"/>
      <point x="1278" y="1069" type="curve" smooth="yes"/>
      <point x="1295" y="1164"/>
      <point x="1281" y="1187"/>
      <point x="1236" y="1187" type="curve" smooth="yes"/>
    </contour>
    <contour>
      <point x="328" y="505" type="line"/>
      <point x="260" y="270" type="line"/>
      <point x="593" y="270" type="line"/>
      <point x="635" y="505" type="line"/>
    </contour>
  </outline>
</glyph>
<glyph name="Aogonek" format="1">
  <advance width="1228"/>
  <unicode hex="0104"/>
  <outline>
    <contour>
      <point x="674" y="1209"/>
      <point x="633" y="1191"/>
      <point x="607" y="1144" type="curve" smooth="yes"/>
      <point x="27" y="102" type="line" smooth="yes"/>
      <point x="1" y="56"/>
      <point x="11" y="24"/>
      <point x="106" y="-2" type="curve" smooth="yes"/>
      <point x="193" y="-26"/>
      <point x="243" y="-17"/>
      <point x="268" y="27" type="curve" smooth="yes"/>
      <point x="373" y="220" type="line"/>
      <point x="811" y="220" type="line"/>
      <point x="846" y="28" type="line"/>
      <point x="706" y="-54"/>
      <point x="597" y="-151"/>
      <point x="597" y="-284" type="curve" smooth="yes"/>
      <point x="597" y="-402"/>
      <point x="685" y="-472"/>
      <point x="824" y="-472" type="curve" smooth="yes"/>
      <point x="911" y="-472"/>
      <point x="994" y="-455"/>
      <point x="1059" y="-433" type="curve" smooth="yes"/>
      <point x="1089" y="-423"/>
      <point x="1101" y="-393"/>
      <point x="1096" y="-340" type="curve" smooth="yes"/>
      <point x="1091" y="-284"/>
      <point x="1073" y="-260"/>
      <point x="1046" y="-265" type="curve" smooth="yes"/>
      <point x="1006" y="-272"/>
      <point x="965" y="-278"/>
      <point x="926" y="-278" type="curve" smooth="yes"/>
      <point x="877" y="-278"/>
      <point x="848" y="-260"/>
      <point x="848" y="-215" type="curve" smooth="yes"/>
      <point x="848" y="-140"/>
      <point x="932" y="-69"/>
      <point x="1066" y="23" type="curve" smooth="yes"/>
      <point x="1093" y="42"/>
      <point x="1100" y="62"/>
      <point x="1094" y="90" type="curve" smooth="yes"/>
      <point x="891" y="1144" type="line" smooth="yes"/>
      <point x="882" y="1190"/>
      <point x="850" y="1209"/>
      <point x="762" y="1209" type="curve" smooth="yes"/>
    </contour>
    <contour>
      <point x="775" y="455" type="line"/>
      <point x="492" y="455" type="line"/>
      <point x="706" y="865" type="line"/>
      <point x="710" y="865" type="line"/>
    </contour>
  </outline>
</glyph>
<glyph name="dcaron" format="1">
  <advance width="1228"/>
  <unicode hex="010F"/>
  <outline>
    <contour>
      <point x="895" y="1312" type="line" smooth="yes"/>
      <point x="850" y="1312"/>
      <point x="829" y="1294"/>
      <point x="821" y="1249" type="curve" smooth="yes"/>
      <point x="740" y="794" type="line"/>
      <point x="765" y="807" type="line"/>
      <point x="716" y="908"/>
      <point x="638" y="946"/>
      <point x="539" y="946" type="curve" smooth="yes"/>
      <point x="267" y="946"/>
      <point x="77" y="680"/>
      <point x="77" y="357" type="curve" smooth="yes"/>
      <point x="77" y="138"/>
      <point x="176" y="-22"/>
      <point x="389" y="-22" type="curve" smooth="yes"/>
      <point x="495" y="-22"/>
      <point x="581" y="29"/>
      <point x="651" y="117" type="curve"/>
      <point x="642" y="63" type="line" smooth="yes"/>
      <point x="634" y="18"/>
      <point x="649" y="0"/>
      <point x="694" y="0" type="curve" smooth="yes"/>
      <point x="788" y="0" type="line" smooth="yes"/>
      <point x="833" y="0"/>
      <point x="854" y="18"/>
      <point x="862" y="63" type="curve" smooth="yes"/>
      <point x="1071" y="1249" type="line" smooth="yes"/>
      <point x="1079" y="1294"/>
      <point x="1064" y="1312"/>
      <point x="1019" y="1312" type="curve" smooth="yes"/>
    </contour>
    <contour>
      <point x="633" y="714"/>
      <point x="696" y="651"/>
      <point x="696" y="533" type="curve" smooth="yes"/>
      <point x="696" y="377"/>
      <point x="606" y="210"/>
      <point x="460" y="210" type="curve" smooth="yes"/>
      <point x="381" y="210"/>
      <point x="338" y="273"/>
      <point x="338" y="378" type="curve" smooth="yes"/>
      <point x="338" y="539"/>
      <point x="416" y="714"/>
      <point x="548" y="714" type="curve" smooth="yes"/>
    </contour>
    <component base="caron.alt" xOffset="815"/>
  </outline>
</glyph>
<glyph name="eogonek" format="1">
  <advance width="1228"/>
  <unicode hex="0119"/>
  <outline>
    <contour>
      <point x="335" y="946"/>
      <point x="140" y="670"/>
      <point x="140" y="379" type="curve" smooth="yes"/>
      <point x="140" y="149"/>
      <point x="283" y="-22"/>
      <point x="544" y="-22" type="curve" smooth="yes"/>
      <point x="576" y="-22"/>
      <point x="608" y="-21"/>
      <point x="640" y="-18" type="curve"/>
      <point x="537" y="-90"/>
      <point x="464" y="-175"/>
      <point x="464" y="-284" type="curve" smooth="yes"/>
      <point x="464" y="-402"/>
      <point x="552" y="-472"/>
      <point x="691" y="-472" type="curve" smooth="yes"/>
      <point x="778" y="-472"/>
      <point x="861" y="-455"/>
      <point x="926" y="-433" type="curve" smooth="yes"/>
      <point x="956" y="-423"/>
      <point x="968" y="-393"/>
      <point x="963" y="-340" type="curve" smooth="yes"/>
      <point x="958" y="-284"/>
      <point x="940" y="-260"/>
      <point x="913" y="-265" type="curve" smooth="yes"/>
      <point x="873" y="-272"/>
      <point x="832" y="-278"/>
      <point x="793" y="-278" type="curve" smooth="yes"/>
      <point x="744" y="-278"/>
      <point x="715" y="-260"/>
      <point x="715" y="-215" type="curve" smooth="yes"/>
      <point x="715" y="-127"/>
      <point x="832" y="-40"/>
      <point x="1002" y="68" type="curve" smooth="yes"/>
      <point x="1035" y="89"/>
      <point x="1047" y="115"/>
      <point x="1031" y="186" type="curve" smooth="yes"/>
      <point x="1015" y="257"/>
      <point x="995" y="273"/>
      <point x="949" y="260" type="curve" smooth="yes"/>
      <point x="810" y="220"/>
      <point x="692" y="205"/>
      <point x="584" y="205" type="curve" smooth="yes"/>
      <point x="483" y="205"/>
      <point x="418" y="247"/>
      <point x="397" y="329" type="curve"/>
      <point x="852" y="374" type="line" smooth="yes"/>
      <point x="1031" y="392"/>
      <point x="1100" y="495"/>
      <point x="1100" y="634" type="curve" smooth="yes"/>
      <point x="1100" y="817"/>
      <point x="949" y="946"/>
      <point x="714" y="946" type="curve" smooth="yes"/>
    </contour>
    <contour>
      <point x="796" y="719"/>
      <point x="842" y="674"/>
      <point x="842" y="624" type="curve" smooth="yes"/>
      <point x="842" y="590"/>
      <point x="824" y="557"/>
      <point x="764" y="551" type="curve" smooth="yes"/>
      <point x="410" y="516" type="line"/>
      <point x="453" y="653"/>
      <point x="556" y="719"/>
      <point x="688" y="719" type="curve" smooth="yes"/>
    </contour>
  </outline>
</glyph>
<glyph name="IJ" format="1">
  <advance width="1228"/>
  <unicode hex="0132"/>
  <outline>
    <contour>
      <point x="1055" y="1187" type="line" smooth="yes"/>
      <point x="1010" y="1187"/>
      <point x="989" y="1169"/>
      <point x="981" y="1124" type="curve" smooth="yes"/>
      <point x="844" y="349" type="line" smooth="yes"/>
      <point x="827" y="253"/>
      <point x="782" y="215"/>
      <point x="701" y="215" type="curve" smooth="yes"/>
      <point x="664" y="215"/>
      <point x="610" y="226"/>
      <point x="565" y="241" type="curve" smooth="yes"/>
      <point x="526" y="254"/>
      <point x="499" y="235"/>
      <point x="471" y="153" type="curve" smooth="yes"/>
      <point x="442" y="69"/>
      <point x="454" y="35"/>
      <point x="495" y="18" type="curve" smooth="yes"/>
      <point x="558" y="-8"/>
      <point x="634" y="-22"/>
      <point x="699" y="-22" type="curve" smooth="yes"/>
      <point x="938" y="-22"/>
      <point x="1049" y="96"/>
      <point x="1091" y="333" type="curve" smooth="yes"/>
      <point x="1231" y="1124" type="line" smooth="yes"/>
      <point x="1239" y="1169"/>
      <point x="1224" y="1187"/>
      <point x="1179" y="1187" type="curve" smooth="yes"/>
    </contour>
    <contour>
      <point x="332" y="1187" type="line" smooth="yes"/>
      <point x="287" y="1187"/>
      <point x="266" y="1169"/>
      <point x="258" y="1124" type="curve" smooth="yes"/>
      <point x="71" y="63" type="line" smooth="yes"/>
      <point x="63" y="18"/>
      <point x="78" y="0"/>
      <point x="123" y="0" type="curve" smooth="yes"/>
      <point x="247" y="0" type="line" smooth="yes"/>
      <point x="292" y="0"/>
      <point x="313" y="18"/>
      <point x="321" y="63" type="curve" smooth="yes"/>
      <point x="508" y="1124" type="line" smooth="yes"/>
      <point x="516" y="1169"/>
      <point x="501" y="1187"/>
      <point x="456" y="1187" type="curve" smooth="yes"/>
    </contour>
  </outline>
</glyph>
<glyph name="Lslash" format="1">
  <advance width="1228"/>
  <unicode hex="0141"/>
  <outline>
    <contour>
      <point x="471" y="1187" type="line" smooth="yes"/>
      <point x="426" y="1187"/>
      <point x="405" y="1169"/>
      <point x="397" y="1124" type="curve" smooth="yes"/>
      <point x="210" y="63" type="line" smooth="yes"/>
      <point x="202" y="18"/>
      <point x="217" y="0"/>
      <point x="262" y="0" type="curve" smooth="yes"/>
      <point x="935" y="0" type="line" smooth="yes"/>
      <point x="980" y="0"/>
      <point x="1002" y="23"/>
      <point x="1018" y="118" type="curve" smooth="yes"/>
      <point x="1035" y="213"/>
      <point x="1021" y="235"/>
      <point x="976" y="235" type="curve" smooth="yes"/>
      <point x="490" y="235" type="line"/>
      <point x="647" y="1124" type="line" smooth="yes"/>
      <point x="655" y="1169"/>
      <point x="640" y="1187"/>
      <point x="595" y="1187" type="curve" smooth="yes"/>
    </contour>
    <contour>
      <point x="50" y="487" type="line" smooth="yes"/>
      <point x="7" y="464"/>
      <point x="-3" y="439"/>
      <point x="27" y="366" type="curve" smooth="yes"/>
      <point x="58" y="293"/>
      <point x="81" y="288"/>
      <point x="123" y="311" type="curve" smooth="yes"/>
      <point x="848" y="700" type="line" smooth="yes"/>
      <point x="890" y="723"/>
      <point x="901" y="747"/>
      <point x="871" y="820" type="curve" smooth="yes"/>
      <point x="840" y="893"/>
      <point x="817" y="899"/>
      <point x="774" y="876" type="curve" smooth="yes"/>
    </contour>
  </outline>
</glyph>
<glyph name="dotlessj" format="1">
  <advance width="1228"/>
  <unicode hex="0237"/>
  <outline>
    <contour>
      <point x="382" y="924" type="line" smooth="yes"/>
      <point x="337" y="924"/>
      <point x="314" y="904"/>
      <point x="299" y="811" type="curve" smooth="yes"/>
      <point x="284" y="718"/>
      <point x="297" y="699"/>
      <point x="342" y="699" type="curve" smooth="yes"/>
      <point x="725" y="699" type="line"/>
      <point x="600" y="-17" type="line" smooth="yes"/>
      <point x="581" y="-125"/>
      <point x="527" y="-173"/>
      <point x="441" y="-173" type="curve" smooth="yes"/>
      <point x="373" y="-173"/>
      <point x="282" y="-144"/>
      <point x="204" y="-105" type="curve" smooth="yes"/>
      <point x="166" y="-86"/>
      <point x="130" y="-93"/>
      <point x="88" y="-178" type="curve" smooth="yes"/>
      <point x="49" y="-258"/>
      <point x="59" y="-293"/>
      <point x="100" y="-315" type="curve" smooth="yes"/>
      <point x="210" y="-374"/>
      <point x="328" y="-410"/>
      <point x="443" y="-410" type="curve" smooth="yes"/>
      <point x="675" y="-410"/>
      <point x="801" y="-289"/>
      <point x="845" y="-40" type="curve" smooth="yes"/>
      <point x="1004" y="861" type="line" smooth="yes"/>
      <point x="1012" y="906"/>
      <point x="997" y="924"/>
      <point x="952" y="924" type="curve" smooth="yes"/>
    </contour>
  </outline>
</glyph>
<glyph name="circumflex" format="1">
  <advance width="1228"/>
  <unicode hex="02C6"/>
  <outline>
    <contour>
      <point x="757" y="1410"/>
      <point x="737" y="1401"/>
      <point x="718" y="1387" type="curve" smooth="yes"/>
      <point x="423" y="1169" type="line" smooth="yes"/>
      <point x="391" y="1145"/>
      <point x="384" y="1114"/>
      <point x="411" y="1067" type="curve" smooth="yes"/>
      <point x="438" y="1020"/>
      <point x="466" y="1009"/>
      <point x="501" y="1028" type="curve" smooth="yes"/>
      <point x="766" y="1166" type="line"/>
      <point x="988" y="1021" type="line" smooth="yes"/>
      <point x="1017" y="1002"/>
      <point x="1048" y="1000"/>
      <point x="1087" y="1047" type="curve" smooth="yes"/>
      <point x="1126" y="1094"/>
      <point x="1117" y="1127"/>
      <point x="1092" y="1152" type="curve" smooth="yes"/>
      <point x="860" y="1387" type="line" smooth="yes"/>
      <point x="845" y="1402"/>
      <point x="829" y="1410"/>
      <point x="793" y="1410" type="curve" smooth="yes"/>
    </contour>
  </outline>
</glyph>
<glyph name="breve" format="1">
  <advance width="1228"/>
  <unicode hex="02D8"/>
  <outline>
    <contour>
      <point x="1024" y="1401"/>
      <point x="991" y="1395"/>
      <point x="976" y="1367" type="curve" smooth="yes"/>
      <point x="930" y="1282"/>
      <point x="866" y="1245"/>
      <point x="758" y="1245" type="curve" smooth="yes"/>
      <point x="650" y="1245"/>
      <point x="594" y="1284"/>
      <point x="575" y="1363" type="curve" smooth="yes"/>
      <point x="568" y="1391"/>
      <point x="541" y="1400"/>
      <point x="491" y="1387" type="curve" smooth="yes"/>
      <point x="438" y="1373"/>
      <point x="420" y="1352"/>
      <point x="424" y="1315" type="curve" smooth="yes"/>
      <point x="441" y="1152"/>
      <point x="544" y="1041"/>
      <point x="741" y="1041" type="curve" smooth="yes"/>
      <point x="950" y="1041"/>
      <point x="1073" y="1151"/>
      <point x="1128" y="1315" type="curve" smooth="yes"/>
      <point x="1140" y="1352"/>
      <point x="1119" y="1373"/>
      <point x="1072" y="1387" type="curve" smooth="yes"/>
    </contour>
  </outline>
</glyph>
<glyph name="dotaccent" format="1">
  <advance width="1228"/>
  <unicode hex="02D9"/>
  <outline>
    <contour>
      <point x="686" y="1363"/>
      <point x="656" y="1345"/>
      <point x="648" y="1300" type="curve" smooth="yes"/>
      <point x="619" y="1136" type="line" smooth="yes"/>
      <point x="611" y="1091"/>
      <point x="640" y="1073"/>
      <point x="735" y="1073" type="curve" smooth="yes"/>
      <point x="830" y="1073"/>
      <point x="861" y="1091"/>
      <point x="869" y="1136" type="curve" smooth="yes"/>
      <point x="898" y="1300" type="line" smooth="yes"/>
      <point x="906" y="1345"/>
      <point x="876" y="1363"/>
      <point x="781" y="1363" type="curve" smooth="yes"/>
    </contour>
  </outline>
</glyph>
<glyph name="commaaccent" format="1">
  <advance width="1228"/>
  <unicode hex="0326"/>
  <outline>
    <contour>
      <point x="435" y="-146" type="line" smooth="yes"/>
      <point x="416" y="-146"/>
      <point x="400" y="-156"/>
      <point x="394" y="-173" type="curve" smooth="yes"/>
      <point x="282" y="-479" type="line" smooth="yes"/>
      <point x="266" y="-522"/>
      <point x="291" y="-542"/>
      <point x="358" y="-544" type="curve" smooth="yes"/>
      <point x="426" y="-546"/>
      <point x="459" y="-529"/>
      <point x="479" y="-495" type="curve" smooth="yes"/>
      <point x="659" y="-189" type="line" smooth="yes"/>
      <point x="673" y="-165"/>
      <point x="664" y="-146"/>
      <point x="641" y="-146" type="curve" smooth="yes"/>
    </contour>
  </outline>
</glyph>
<glyph name="fraction" format="1">
  <advance width="1228"/>
  <unicode hex="2044"/>
  <outline>
    <contour>
      <point x="95" y="329" type="line" smooth="yes"/>
      <point x="67" y="314"/>
      <point x="69" y="286"/>
      <point x="99" y="240" type="curve" smooth="yes"/>
      <point x="129" y="194"/>
      <point x="152" y="188"/>
      <point x="175" y="200" type="curve" smooth="yes"/>
      <point x="1174" y="721" type="line" smooth="yes"/>
      <point x="1202" y="736"/>
      <point x="1200" y="764"/>
      <point x="1170" y="810" type="curve" smooth="yes"/>
      <point x="1140" y="856"/>
      <point x="1117" y="862"/>
      <point x="1094" y="850" type="curve" smooth="yes"/>
    </contour>
  </outline>
</glyph>
<glyph name="won" format="1">
  <advance width="1228"/>
  <unicode hex="20A9"/>
  <outline>
    <contour>
      <point x="112" y="914" type="line" smooth="yes"/>
      <point x="67" y="914"/>
      <point x="47" y="898"/>
      <point x="31" y="811" type="curve" smooth="yes"/>
      <point x="16" y="725"/>
      <point x="31" y="709"/>
      <point x="76" y="709" type="curve" smooth="yes"/>
      <point x="585" y="709" type="line"/>
      <point x="654" y="709" type="line"/>
      <point x="722" y="709" type="line"/>
      <point x="1258" y="709" type="line" smooth="yes"/>
      <point x="1303" y="709"/>
      <point x="1324" y="725"/>
      <point x="1339" y="811" type="curve" smooth="yes"/>
      <point x="1355" y="898"/>
      <point x="1339" y="914"/>
      <point x="1294" y="914" type="curve" smooth="yes"/>
    </contour>
    <component base="W"/>
  </outline>
</glyph>
<glyph name="caron.alt" format="1">
  <advance width="1228"/>
  <outline>
    <contour>
      <point x="508" y="1312" type="line" smooth="yes"/>
      <point x="485" y="1312"/>
      <point x="468" y="1300"/>
      <point x="460" y="1279" type="curve" smooth="yes"/>
      <point x="306" y="888" type="line" smooth="yes"/>
      <point x="285" y="836"/>
      <point x="316" y="817"/>
      <point x="381" y="817" type="curve" smooth="yes"/>
      <point x="445" y="817"/>
      <point x="481" y="830"/>
      <point x="506" y="873" type="curve" smooth="yes"/>
      <point x="730" y="1260" type="line" smooth="yes"/>
      <point x="747" y="1289"/>
      <point x="736" y="1312"/>
      <point x="709" y="1312" type="curve" smooth="yes"/>
    </contour>
  </outline>
</glyph>
